# xmcd
#
# Track frame offsets: 
#        150
#        17059
#        28131
#        40587
#        54351
#        69024
#        89243
#        102509
#        120915
#        133643
#
# Disc length: 2030 seconds
#
# Revision: 1
# Processed by: cddbd v1.5.2PL0 Copyright (c) Steve Scherf et al.
# Submitted via: ExactAudioCopy v0.99pb1
#
DISCID=7c07ec0a
DTITLE=Sharon Jones and the Dap-Kings - 100 Days, 100 Nights
DYEAR=2007
DGENRE=Soul
TTITLE0=100 Days, 100 Nights
TTITLE1=Nobody's Baby
TTITLE2=Tell Me
TTITLE3=Be Easy
TTITLE4=When The Other Foot Drops, Uncle
TTITLE5=Let Them Knock
TTITLE6=Something's Changed
TTITLE7=Humble Me
TTITLE8=Keep On Looking
TTITLE9=Answer Me
EXTD=
EXTT0=
EXTT1=
EXTT2=
EXTT3=
EXTT4=
EXTT5=
EXTT6=
EXTT7=
EXTT8=
EXTT9=
PLAYORDER=
